<svg width="67" height="66" viewBox="0 0 67 66" fill="none" xmlns="http://www.w3.org/2000/svg">
<path d="M5 12C5 9.17157 5 7.75736 5.87868 6.87868C6.75736 6 8.17157 6 11 6H48.5275C48.9254 6 49.1243 6 49.3041 6.07246C49.484 6.14491 49.6273 6.28282 49.9141 6.55864L61.3865 17.5948C61.689 17.8858 61.8403 18.0313 61.9201 18.2189C62 18.4066 62 18.6165 62 19.0362V54.8323C62 57.6607 62 59.0749 61.1213 59.9536C60.2426 60.8323 58.8284 60.8323 56 60.8323H11C8.17157 60.8323 6.75736 60.8323 5.87868 59.9536C5 59.0749 5 57.6607 5 54.8323V12Z" stroke="#E9304C" stroke-width="10"/>
</svg>
