<svg width="84" height="82" viewBox="0 0 84 82" fill="none" xmlns="http://www.w3.org/2000/svg">
<path fill-rule="evenodd" clip-rule="evenodd" d="M42 0C18.795 0 0 18.795 0 42C0 60.585 12.0225 76.2825 28.7175 81.8475C30.8175 82.215 31.605 80.955 31.605 79.8525C31.605 78.855 31.5525 75.5475 31.5525 72.03C21 73.9725 18.27 69.4575 17.43 67.095C16.9575 65.8875 14.91 62.16 13.125 61.1625C11.655 60.375 9.555 58.4325 13.0725 58.38C16.38 58.3275 18.7425 61.425 19.53 62.685C23.31 69.0375 29.3475 67.2525 31.7625 66.15C32.13 63.42 33.2325 61.5825 34.44 60.5325C25.095 59.4825 15.33 55.86 15.33 39.795C15.33 35.2275 16.9575 31.4475 19.635 28.5075C19.215 27.4575 17.745 23.1525 20.055 17.3775C20.055 17.3775 23.5725 16.275 31.605 21.6825C34.965 20.7375 38.535 20.265 42.105 20.265C45.675 20.265 49.245 20.7375 52.605 21.6825C60.6375 16.2225 64.155 17.3775 64.155 17.3775C66.465 23.1525 64.995 27.4575 64.575 28.5075C67.2525 31.4475 68.88 35.175 68.88 39.795C68.88 55.9125 59.0625 59.4825 49.7175 60.5325C51.24 61.845 52.5525 64.365 52.5525 68.3025C52.5525 73.92 52.5 78.435 52.5 79.8525C52.5 80.955 53.2875 82.2675 55.3875 81.8475C71.9775 76.2825 84 60.5325 84 42C84 18.795 65.205 0 42 0Z" fill="#E9304C"/>
</svg>
